# Blender v3.2.2 OBJ File: ''
# www.blender.org
mtllib gold.mtl
o 7cd0
v 2.750000 8.499999 5.000001
v 0.500000 4.249999 7.000000
v 9.000000 4.249999 7.750000
v 7.000000 8.499999 5.500001
v 2.000000 4.250001 -9.999999
v 0.500000 4.249999 7.000000
v 2.750000 8.499999 5.000001
v 4.000000 8.500001 -7.749999
v 10.500000 4.250001 -9.249999
v 2.000000 4.250001 -9.999999
v 4.000000 8.500001 -7.749999
v 8.250000 8.500001 -7.249999
v 9.000000 4.249999 7.750000
v 10.500000 4.250001 -9.249999
v 8.250000 8.500001 -7.249999
v 7.000000 8.499999 5.500001
v 2.750000 8.499999 5.000001
v 7.000000 8.499999 5.500001
v 8.250000 8.500001 -7.249999
v 4.000000 8.500001 -7.749999
v 2.000000 4.250001 -9.999999
v 10.500000 4.250001 -9.249999
v 9.000000 4.249999 7.750000
v 0.500000 4.249999 7.000000
v -1.500000 12.749999 6.000002
v -3.250000 8.499999 8.500001
v 5.000000 8.499999 7.500001
v 2.750000 12.749999 5.750002
v -5.000000 8.500001 -8.499999
v -3.250000 8.499999 8.500001
v -1.500000 12.749999 6.000002
v -2.750000 12.750001 -6.499998
v 3.250000 8.500002 -9.249999
v -5.000000 8.500001 -8.499999
v -2.750000 12.750001 -6.499998
v 1.500000 12.750001 -6.999998
v 5.000000 8.499999 7.500001
v 3.250000 8.500002 -9.249999
v 1.500000 12.750001 -6.999998
v 2.750000 12.749999 5.750002
v -1.500000 12.749999 6.000002
v 2.750000 12.749999 5.750002
v 1.500000 12.750001 -6.999998
v -2.750000 12.750001 -6.499998
v -5.000000 8.500001 -8.499999
v 3.250000 8.500002 -9.249999
v 5.000000 8.499999 7.500001
v -3.250000 8.499999 8.500001
v -0.750000 4.249999 5.750000
v -2.750000 -0.000001 8.000000
v 5.750000 -0.000001 7.500000
v 3.500000 4.249999 5.500000
v -3.750000 0.000001 -9.000000
v -2.750000 -0.000001 8.000000
v -0.750000 4.249999 5.750000
v -1.500000 4.250001 -7.000000
v 4.750000 0.000002 -9.500000
v -3.750000 0.000001 -9.000000
v -1.500000 4.250001 -7.000000
v 2.750000 4.250001 -7.250000
v 5.750000 -0.000001 7.500000
v 4.750000 0.000002 -9.500000
v 2.750000 4.250001 -7.250000
v 3.500000 4.249999 5.500000
v -0.750000 4.249999 5.750000
v 3.500000 4.249999 5.500000
v 2.750000 4.250001 -7.250000
v -1.500000 4.250001 -7.000000
v -3.750000 0.000001 -9.000000
v 4.750000 0.000002 -9.500000
v 5.750000 -0.000001 7.500000
v -2.750000 -0.000001 8.000000
v 8.500000 4.249999 5.250000
v 6.750000 -0.000001 7.500000
v 15.250000 -0.000001 6.500000
v 12.750000 4.249999 4.750000
v 4.750000 0.000002 -9.250000
v 6.750000 -0.000001 7.500000
v 8.500000 4.249999 5.250000
v 7.000000 4.250001 -7.500000
v 13.250000 0.000002 -10.250000
v 4.750000 0.000002 -9.250000
v 7.000000 4.250001 -7.500000
v 11.250000 4.250001 -8.000000
v 15.250000 -0.000001 6.500000
v 13.250000 0.000002 -10.250000
v 11.250000 4.250001 -8.000000
v 12.750000 4.249999 4.750000
v 8.500000 4.249999 5.250000
v 12.750000 4.249999 4.750000
v 11.250000 4.250001 -8.000000
v 7.000000 4.250001 -7.500000
v 4.750000 0.000002 -9.250000
v 13.250000 0.000002 -10.250000
v 15.250000 -0.000001 6.500000
v 6.750000 -0.000001 7.500000
v -11.500000 4.249999 6.750000
v -13.750000 -0.000001 8.750000
v -5.250000 -0.000002 9.500000
v -7.250000 4.249999 7.000000
v -12.500000 0.000001 -8.250000
v -13.750000 -0.000001 8.750000
v -11.500000 4.249999 6.750000
v -10.500000 4.250001 -6.000000
v -4.000000 0.000001 -7.500000
v -12.500000 0.000001 -8.250000
v -10.500000 4.250001 -6.000000
v -6.250000 4.250001 -5.500000
v -5.250000 -0.000002 9.500000
v -4.000000 0.000001 -7.500000
v -6.250000 4.250001 -5.500000
v -7.250000 4.249999 7.000000
v -11.500000 4.249999 6.750000
v -7.250000 4.249999 7.000000
v -6.250000 4.250001 -5.500000
v -10.500000 4.250001 -6.000000
v -12.500000 0.000001 -8.250000
v -4.000000 0.000001 -7.500000
v -5.250000 -0.000002 9.500000
v -13.750000 -0.000001 8.750000
v -7.750000 8.499999 4.500001
v -10.000000 4.249999 6.500000
v -1.500000 4.249999 7.250000
v -3.500000 8.499999 4.750001
v -8.500000 4.250002 -10.499999
v -10.000000 4.249999 6.500000
v -7.750000 8.499999 4.500001
v -6.500000 8.500001 -8.249999
v 0.000000 4.250001 -9.749999
v -8.500000 4.250002 -10.499999
v -6.500000 8.500001 -8.249999
v -2.250000 8.500001 -7.749999
v -1.500000 4.249999 7.250000
v 0.000000 4.250001 -9.749999
v -2.250000 8.500001 -7.749999
v -3.500000 8.499999 4.750001
v -7.750000 8.499999 4.500001
v -3.500000 8.499999 4.750001
v -2.250000 8.500001 -7.749999
v -6.500000 8.500001 -8.249999
v -8.500000 4.250002 -10.499999
v 0.000000 4.250001 -9.749999
v -1.500000 4.249999 7.250000
v -10.000000 4.249999 6.500000
vt 0.171086 0.135876
vt 0.147080 0.104508
vt 0.217531 0.095994
vt 0.206297 0.131618
vt 0.198255 0.372387
vt 0.147080 0.104508
vt 0.171086 0.135876
vt 0.209460 0.336792
vt 0.268677 0.363902
vt 0.198255 0.372387
vt 0.209460 0.336792
vt 0.244671 0.332535
vt 0.217531 0.095994
vt 0.268677 0.363902
vt 0.244671 0.332535
vt 0.206297 0.131618
vt 0.171086 0.135876
vt 0.206297 0.131618
vt 0.244671 0.332535
vt 0.209460 0.336792
vt 0.198255 0.372387
vt 0.268677 0.363902
vt 0.217531 0.095994
vt 0.147080 0.104508
vt 0.132831 0.117753
vt 0.111456 0.080059
vt 0.185543 0.097738
vt 0.169874 0.126593
vt 0.134279 0.346164
vt 0.111456 0.080059
vt 0.132831 0.117753
vt 0.149948 0.317309
vt 0.208366 0.363843
vt 0.134279 0.346164
vt 0.149948 0.317309
vt 0.186992 0.326149
vt 0.185543 0.097738
vt 0.208366 0.363843
vt 0.186992 0.326149
vt 0.169874 0.126593
vt 0.132831 0.117753
vt 0.169874 0.126593
vt 0.186992 0.326149
vt 0.149948 0.317309
vt 0.134279 0.346164
vt 0.208366 0.363843
vt 0.185543 0.097738
vt 0.111456 0.080059
vt 0.139660 0.122897
vt 0.117694 0.086356
vt 0.191279 0.098921
vt 0.176437 0.129165
vt 0.146194 0.353614
vt 0.117694 0.086356
vt 0.139660 0.122897
vt 0.161035 0.323340
vt 0.219778 0.366179
vt 0.146194 0.353614
vt 0.161035 0.323340
vt 0.197812 0.329608
vt 0.191279 0.098921
vt 0.219778 0.366179
vt 0.197812 0.329608
vt 0.176437 0.129165
vt 0.139660 0.122897
vt 0.176437 0.129165
vt 0.197812 0.329608
vt 0.161035 0.323340
vt 0.146194 0.353614
vt 0.219778 0.366179
vt 0.191279 0.098921
vt 0.117694 0.086356
vt 0.220606 0.135698
vt 0.199527 0.097502
vt 0.273762 0.117517
vt 0.257738 0.145691
vt 0.219748 0.362956
vt 0.199527 0.097502
vt 0.220606 0.135698
vt 0.235772 0.334752
vt 0.294013 0.382941
vt 0.219748 0.362956
vt 0.235772 0.334752
vt 0.272904 0.344774
vt 0.273762 0.117517
vt 0.294013 0.382941
vt 0.272904 0.344774
vt 0.257738 0.145691
vt 0.220606 0.135698
vt 0.257738 0.145691
vt 0.272904 0.344774
vt 0.235772 0.334752
vt 0.219748 0.362956
vt 0.294013 0.382941
vt 0.273762 0.117517
vt 0.199527 0.097502
vt 0.046031 0.101227
vt 0.022262 0.069120
vt 0.093215 0.063444
vt 0.081508 0.098389
vt 0.070451 0.337324
vt 0.022262 0.069120
vt 0.046031 0.101227
vt 0.082188 0.302380
vt 0.141434 0.331618
vt 0.070451 0.337324
vt 0.082188 0.302380
vt 0.117664 0.299542
vt 0.093215 0.063444
vt 0.141434 0.331618
vt 0.117664 0.299542
vt 0.081508 0.098389
vt 0.046031 0.101227
vt 0.081508 0.098389
vt 0.117664 0.299542
vt 0.082188 0.302380
vt 0.070451 0.337324
vt 0.141434 0.331618
vt 0.093215 0.063444
vt 0.022262 0.069120
vt 0.083636 0.140074
vt 0.059719 0.108470
vt 0.130347 0.100902
vt 0.118965 0.136290
vt 0.109889 0.376467
vt 0.059719 0.108470
vt 0.083636 0.140074
vt 0.121271 0.341079
vt 0.180517 0.368898
vt 0.109889 0.376467
vt 0.121271 0.341079
vt 0.156600 0.337295
vt 0.130347 0.100902
vt 0.180517 0.368898
vt 0.156600 0.337295
vt 0.118965 0.136290
vt 0.083636 0.140074
vt 0.118965 0.136290
vt 0.156600 0.337295
vt 0.121271 0.341079
vt 0.109889 0.376467
vt 0.180517 0.368898
vt 0.130347 0.100902
vt 0.059719 0.108470
vn -0.0781 0.4581 0.8855
vn -0.1057 0.4260 0.8985
vn -0.8959 0.4371 -0.0791
vn -0.8830 0.4614 -0.0866
vn 0.0791 0.4371 -0.8959
vn 0.1033 0.4678 -0.8778
vn 0.8959 0.4371 0.0791
vn 0.8830 0.4614 0.0866
vn -0.0000 1.0000 0.0000
vn 0.0000 -1.0000 -0.0000
vn 0.1061 0.4713 0.8755
vn 0.0537 0.4044 0.9130
vn -0.9003 0.4252 0.0927
vn -0.8971 0.4327 0.0897
vn -0.0804 0.4590 -0.8848
vn -0.1054 0.4310 -0.8962
vn 0.9020 0.4213 -0.0942
vn 0.8949 0.4376 -0.0877
vn 0.0525 0.4478 0.8926
vn -0.8926 0.4478 0.0525
vn -0.0525 0.4478 -0.8926
vn 0.8926 0.4478 -0.0525
vn 0.1054 0.4310 0.8962
vn -0.8981 0.4266 0.1072
vn -0.8962 0.4310 0.1054
vn -0.1057 0.4260 -0.8985
vn 0.8773 0.4683 -0.1048
vn 0.8753 0.4725 -0.1030
vn -0.0512 0.4883 0.8712
vn -0.8943 0.4425 -0.0658
vn -0.8879 0.4547 -0.0696
vn 0.8943 0.4425 0.0658
vn 0.8858 0.4586 0.0709
vn 0.8804 0.4661 0.0880
usemtl material_0001
s off
f 1/1/1 2/2/1 3/3/1
f 3/3/2 4/4/2 1/1/2
f 5/5/3 6/6/3 7/7/3
f 7/7/4 8/8/4 5/5/4
f 9/9/5 10/10/5 11/11/5
f 11/11/6 12/12/6 9/9/6
f 13/13/7 14/14/7 15/15/7
f 15/15/8 16/16/8 13/13/8
f 17/17/9 18/18/9 19/19/9
f 19/19/9 20/20/9 17/17/9
f 21/21/10 22/22/10 23/23/10
f 23/23/10 24/24/10 21/21/10
f 25/25/11 26/26/11 27/27/11
f 27/27/12 28/28/12 25/25/12
f 29/29/13 30/30/13 31/31/13
f 31/31/14 32/32/14 29/29/14
f 33/33/15 34/34/15 35/35/15
f 35/35/16 36/36/16 33/33/16
f 37/37/17 38/38/17 39/39/17
f 39/39/18 40/40/18 37/37/18
f 41/41/9 42/42/9 43/43/9
f 43/43/9 44/44/9 41/41/9
f 45/45/10 46/46/10 47/47/10
f 47/47/10 48/48/10 45/45/10
f 49/49/19 50/50/19 51/51/19
f 51/51/19 52/52/19 49/49/19
f 53/53/20 54/54/20 55/55/20
f 55/55/20 56/56/20 53/53/20
f 57/57/21 58/58/21 59/59/21
f 59/59/21 60/60/21 57/57/21
f 61/61/22 62/62/22 63/63/22
f 63/63/22 64/64/22 61/61/22
f 65/65/9 66/66/9 67/67/9
f 67/67/9 68/68/9 65/65/9
f 69/69/10 70/70/10 71/71/10
f 71/71/10 72/72/10 69/69/10
f 73/73/23 74/74/23 75/75/23
f 75/75/23 76/76/23 73/73/23
f 77/77/24 78/78/24 79/79/24
f 79/79/25 80/80/25 77/77/25
f 81/81/26 82/82/26 83/83/26
f 83/83/26 84/84/26 81/81/26
f 85/85/27 86/86/27 87/87/27
f 87/87/28 88/88/28 85/85/28
f 89/89/9 90/90/9 91/91/9
f 91/91/9 92/92/9 89/89/9
f 93/93/10 94/94/10 95/95/10
f 95/95/10 96/96/10 93/93/10
f 97/97/1 98/98/1 99/99/1
f 99/99/29 100/100/29 97/97/29
f 101/101/30 102/102/30 103/103/30
f 103/103/31 104/104/31 101/101/31
f 105/105/5 106/106/5 107/107/5
f 107/107/6 108/108/6 105/105/6
f 109/109/32 110/110/32 111/111/32
f 111/111/33 112/112/33 109/109/33
f 113/113/9 114/114/9 115/115/9
f 115/115/9 116/116/9 113/113/9
f 117/117/10 118/118/10 119/119/10
f 119/119/10 120/120/10 117/117/10
f 121/121/1 122/122/1 123/123/1
f 123/123/29 124/124/29 121/121/29
f 125/125/3 126/126/3 127/127/3
f 127/127/4 128/128/4 125/125/4
f 129/129/5 130/130/5 131/131/5
f 131/131/6 132/132/6 129/129/6
f 133/133/7 134/134/7 135/135/7
f 135/135/34 136/136/34 133/133/34
f 137/137/9 138/138/9 139/139/9
f 139/139/9 140/140/9 137/137/9
f 141/141/10 142/142/10 143/143/10
f 143/143/10 144/144/10 141/141/10
