# Blender v3.2.2 OBJ File: ''
# www.blender.org
mtllib tree.mtl
o N64Tree__a_tree
v -0.027027 3.205287 0.787501
v -0.705807 3.205287 0.365581
v -0.031527 1.718154 0.900180
v 0.794574 1.718154 0.477819
v 0.682227 3.205287 0.417763
v -0.822132 1.718154 0.418185
v -0.044406 -0.000000 1.239984
v 1.080765 -0.000000 0.658890
v 0.830124 1.718154 -0.426357
v 0.712728 3.205287 -0.373751
v -1.121202 -0.000000 0.576873
v 1.129194 0.000000 -0.585045
v 0.039573 1.718154 -0.908325
v 0.033966 3.205287 -0.795653
v 0.052425 0.000000 -1.248138
v -0.675333 3.205287 -0.425987
v -0.786573 1.718154 -0.486036
v -1.072791 0.000000 -0.667152
v -0.360333 20.802240 -0.168379
v -1.234665 20.009350 -0.570427
v -1.111401 20.009350 0.784010
v 0.035136 20.802248 0.387065
v -0.037026 20.802248 -0.407356
v -1.605231 17.249022 -2.275387
v -2.527821 17.249022 -1.167936
v -2.773305 17.249022 0.252462
v -0.123462 20.009350 -1.354408
v -2.275470 17.249022 1.605215
v -1.168110 17.249022 2.527851
v 0.123462 20.009350 1.354412
v 1.234620 20.009350 0.570404
v 0.371358 20.802248 0.171605
v 1.111401 20.009350 -0.784006
v -4.113063 11.808297 -1.900339
v -4.512177 11.808297 0.410744
v -3.702285 11.808297 2.611784
v 1.168065 17.249022 -2.527863
v -0.252360 17.249022 -2.773131
v -1.900323 11.808296 4.113002
v 2.275488 17.249022 -1.605256
v 2.773260 17.249022 -0.252501
v -5.834421 7.371738 0.449758
v -4.787208 7.371737 3.399139
v -2.457180 7.371737 5.352878
v 1.900323 11.808298 -4.112998
v -0.410733 11.808298 -4.512148
v -2.611782 11.808298 -3.702256
v 0.449757 7.371737 5.872357
v 0.410760 11.808296 4.512152
v 3.702285 11.808297 -2.611825
v -4.977315 5.841063 3.610891
v -2.567655 5.841062 5.715289
v 0.395226 5.841062 6.238117
v -0.449739 7.371739 -5.872355
v -3.377196 7.371739 -4.818320
v -5.318307 7.371738 -2.473181
v 0.252360 17.249022 2.773136
v -4.900761 3.205287 2.098863
v -6.096798 5.841063 0.397270
v -2.550915 3.205286 5.497786
v 0.252729 3.205286 5.948208
v 3.529179 5.841062 5.144572
v -5.529375 5.841063 -2.627207
v -3.529179 5.841064 -5.144570
v 1.605231 17.249022 2.275392
v 2.611782 11.808296 3.702242
v -0.000414 3.205287 -0.000017
v 3.505140 3.205286 4.948750
v 3.377196 7.371737 4.818349
v -5.444604 3.205287 -1.527147
v 4.113081 11.808297 1.900325
v 2.527866 17.249022 1.167942
v 5.318325 7.371737 2.473183
v 5.443857 3.205287 1.527148
v -6.056541 3.205287 0.261649
v 5.529438 5.841063 2.627236
v 5.834421 7.371738 -0.449756
v 4.512177 11.808297 -0.410767
v 6.009390 3.205296 -0.261629
v 6.096798 5.841063 -0.397241
v 4.977315 5.841063 -3.172247
v 4.787181 7.371738 -3.399191
v 2.457180 7.371739 -5.352901
v -3.505824 3.205288 -4.948749
v 4.899969 3.205287 -3.051855
v 2.567700 5.841064 -5.715251
v 2.550105 3.205288 -5.497785
v -0.395226 5.841064 -6.238115
v -0.253386 3.205288 -5.948207
vt -0.985878 0.966379
vt -0.985878 0.997247
vt -0.510373 0.966379
vt -0.510373 0.936188
vt -0.985878 0.936188
vt -0.510373 0.997247
vt -0.119400 0.966379
vt -0.119400 0.936188
vt -0.510373 0.966379
vt -0.985878 0.966379
vt -0.119400 0.997247
vt -0.119400 0.966379
vt -0.510373 0.997731
vt -0.985878 0.997731
vt -0.119400 0.997731
vt -0.985878 0.996764
vt -0.985878 0.966379
vt -0.510373 0.996764
vt -0.985878 0.996764
vt -0.510373 0.966379
vt -0.119400 0.996764
vt -0.510373 0.996764
vt -0.119400 0.966379
vt -0.119400 0.996764
vt -0.262800 0.929200
vt 0.024400 0.875200
vt -0.335800 0.875200
vt -0.256000 0.916600
vt 0.055600 0.929900
vt 0.172700 0.679600
vt 0.003200 0.679600
vt -0.166300 0.679600
vt 0.242200 0.875700
vt -0.335800 0.679600
vt -0.508000 0.679600
vt -0.183300 0.874700
vt 0.024400 0.875200
vt 0.039300 0.914000
vt 0.363400 0.875200
vt 0.003200 0.442300
vt -0.166300 0.442300
vt -0.335800 0.442300
vt 0.492000 0.679600
vt 0.342200 0.679600
vt -0.508000 0.442300
vt 0.342200 0.679600
vt 0.172700 0.679600
vt -0.166300 0.214600
vt -0.335800 0.214600
vt -0.508000 0.214600
vt 0.492000 0.442300
vt 0.342200 0.442300
vt 0.172700 0.442300
vt -0.335800 0.214600
vt -0.335800 0.442300
vt 0.342200 0.442300
vt -0.314600 0.134700
vt -0.508000 0.134700
vt -0.314600 0.134700
vt 0.342200 0.214600
vt 0.172700 0.214600
vt 0.003200 0.214600
vt -0.335800 0.679600
vt -0.293400 0.054800
vt -0.123900 0.134700
vt -0.508000 0.054800
vt -0.293400 0.054800
vt -0.123900 0.134700
vt 0.045600 0.134700
vt 0.215100 0.134700
vt -0.166300 0.679600
vt -0.166300 0.442300
vt 0.009045 0.064677
vt 0.078607 -0.061369
vt 0.208351 0.064677
vt 0.208351 0.064677
vt -0.081600 0.054800
vt 0.274755 -0.061369
vt 0.405056 0.064677
vt -0.166300 0.214600
vt 0.087900 0.054800
vt 0.003200 0.442300
vt 0.003200 0.679600
vt 0.003200 0.214600
vt 0.469325 -0.061369
vt 0.562476 0.064677
vt 0.087900 0.054800
vt 0.405056 0.064677
vt 0.045600 0.134700
vt -0.081600 0.054800
vt 0.172700 0.214600
vt 0.172700 0.442300
vt 0.562476 0.064677
vt 0.619686 -0.061369
vt 0.719896 0.064677
vt 0.257400 0.054800
vt 0.215100 0.134700
vt 0.363400 0.134700
vt 0.342200 0.214600
vt 0.492000 0.214600
vt 0.719896 0.064677
vt 0.257400 0.054800
vt 0.771720 -0.061369
vt 0.837938 0.064677
vt 0.384500 0.054800
vt 0.492000 0.134700
vt 0.492000 0.054800
vt 0.363400 0.134700
vt 0.384500 0.054800
vt 0.837938 0.064677
vt 0.873044 -0.061369
vt 0.937777 0.064677
vn 0.1463 0.0761 0.9863
vn -0.7733 0.0807 0.6288
vn -0.0389 0.1356 0.9900
vn 0.8346 0.1381 0.5333
vn 0.9276 0.0849 0.3637
vn -0.8734 0.1407 0.4662
vn -0.2164 0.1901 0.9576
vn 0.7117 0.1906 0.6761
vn 0.8734 0.1411 -0.4662
vn 0.7733 0.0813 -0.6288
vn -0.9387 0.1901 0.2877
vn 0.9387 0.1900 -0.2877
vn 0.0390 0.1357 -0.9900
vn -0.1462 0.0760 -0.9863
vn 0.2164 0.1901 -0.9576
vn -0.9277 0.0843 -0.3638
vn -0.8346 0.1379 -0.5333
vn -0.7117 0.1907 -0.6762
vn -0.4273 0.9030 -0.0446
vn -0.6828 0.6289 -0.3719
vn -0.6259 0.6427 0.4418
vn 0.0053 0.9217 0.3880
vn -0.0100 0.9235 -0.3835
vn -0.5645 0.3915 -0.7267
vn -0.8643 0.3677 -0.3432
vn -0.9116 0.3916 0.1255
vn -0.0724 0.6022 -0.7951
vn -0.7293 0.3677 0.5770
vn -0.3471 0.3916 0.8522
vn 0.0722 0.6050 0.7929
vn 0.6801 0.6281 0.3781
vn 0.4252 0.9034 0.0564
vn 0.6276 0.6403 -0.4428
vn -0.8668 0.2968 -0.4006
vn -0.9514 0.2960 0.0851
vn -0.7802 0.2979 0.5500
vn 0.3470 0.3916 -0.8522
vn -0.1350 0.3677 -0.9201
vn -0.4009 0.2995 0.8658
vn 0.7293 0.3677 -0.5770
vn 0.9116 0.3916 -0.1255
vn -0.9706 0.2265 0.0820
vn -0.7977 0.2412 0.5527
vn -0.4072 0.2659 0.8738
vn 0.4009 0.2995 -0.8658
vn -0.0857 0.2992 -0.9503
vn -0.5508 0.2980 -0.7796
vn 0.0817 0.2623 0.9615
vn 0.0857 0.2992 0.9503
vn 0.7803 0.2979 -0.5500
vn -0.8586 -0.0276 0.5118
vn -0.4913 -0.0001 0.8710
vn 0.0286 0.0969 0.9949
vn -0.0817 0.2624 -0.9615
vn -0.5614 0.2498 -0.7889
vn -0.8830 0.2295 -0.4094
vn 0.1350 0.3677 0.9201
vn -0.6802 -0.5790 0.4495
vn -0.9987 0.0176 0.0484
vn -0.3480 -0.7582 0.5513
vn 0.0637 -0.5235 0.8497
vn 0.5589 0.0199 0.8290
vn -0.8865 0.0302 -0.4617
vn -0.5589 0.0199 -0.8290
vn 0.5645 0.3916 0.7267
vn 0.5508 0.2980 0.7796
vn 0.0000 -1.0000 -0.0000
vn 0.4128 -0.7523 0.5135
vn 0.5614 0.2498 0.7889
vn -0.7737 -0.5290 -0.3487
vn 0.8668 0.2968 0.4006
vn 0.8643 0.3677 0.3431
vn 0.8586 0.2395 0.4533
vn 0.6706 -0.6469 0.3631
vn -0.3723 -0.8981 0.2342
vn 0.9165 0.0366 0.3984
vn -0.9063 -0.1084 -0.4085
vn -0.9931 -0.0211 0.1155
vn -0.6584 -0.7488 0.0766
vn 0.9779 0.2027 -0.0507
vn 0.9514 0.2960 -0.0852
vn -0.6882 -0.6423 -0.3373
vn 0.7878 -0.6152 0.0313
vn 0.9869 0.0417 -0.1561
vn 0.8196 0.0338 -0.5719
vn 0.8355 0.1808 -0.5189
vn 0.4604 0.2233 -0.8592
vn -0.4128 -0.7522 -0.5136
vn 0.7061 -0.5887 -0.3934
vn 0.4114 0.0440 -0.9104
vn 0.4450 -0.6098 -0.6559
vn -0.0286 0.0970 -0.9949
vn -0.0637 -0.5235 -0.8497
usemtl tree
s 1
f 1/1/1 2/2/2 3/3/3
f 1/1/1 3/3/3 4/4/4
f 1/1/1 4/4/4 5/5/5
f 2/2/2 6/6/6 3/3/3
f 3/3/3 6/6/6 7/7/7
f 3/3/3 7/7/7 8/8/8
f 3/3/3 8/8/8 4/4/4
f 5/5/5 4/4/4 9/9/9
f 5/5/5 9/9/9 10/10/10
f 6/6/6 11/11/11 7/7/7
f 8/8/8 12/12/12 4/4/4
f 4/4/4 12/12/12 9/9/9
f 10/10/10 9/9/9 13/13/13
f 10/10/10 13/13/13 14/14/14
f 12/12/12 15/15/15 9/9/9
f 9/9/9 15/15/15 13/13/13
f 2/16/2 16/17/16 6/18/6
f 16/17/16 14/19/14 17/20/17
f 16/17/16 17/20/17 6/18/6
f 6/18/6 17/20/17 11/21/11
f 14/19/14 13/22/13 17/20/17
f 17/20/17 13/22/13 18/23/18
f 17/20/17 18/23/18 11/21/11
f 13/22/13 15/24/15 18/23/18
f 19/25/19 20/26/20 21/27/21
f 19/25/19 21/27/21 22/28/22
f 19/25/19 22/28/22 23/29/23
f 19/25/19 23/29/23 20/26/20
f 20/26/20 24/30/24 25/31/25
f 20/26/20 25/31/25 26/32/26
f 20/26/20 23/29/23 27/33/27
f 20/26/20 27/33/27 24/30/24
f 20/26/20 26/32/26 21/27/21
f 21/27/21 28/34/28 29/35/29
f 21/27/21 30/36/30 22/28/22
f 21/27/21 26/32/26 28/34/28
f 21/27/21 29/35/29 30/36/30
f 22/28/22 31/37/31 32/38/32
f 22/28/22 30/36/30 31/37/31
f 22/28/22 32/38/32 23/29/23
f 23/29/23 33/39/33 27/33/27
f 23/29/23 32/38/32 33/39/33
f 25/31/25 24/30/24 34/40/34
f 25/31/25 34/40/34 35/41/35
f 25/31/25 35/41/35 26/32/26
f 26/32/26 35/41/35 36/42/36
f 26/32/26 36/42/36 28/34/28
f 27/33/27 33/39/33 37/43/37
f 27/33/27 37/43/37 38/44/38
f 27/33/27 38/44/38 24/30/24
f 28/34/28 36/42/36 39/45/39
f 28/34/28 39/45/39 29/35/29
f 32/38/32 31/37/31 33/39/33
f 33/39/33 40/46/40 37/43/37
f 33/39/33 41/47/41 40/46/40
f 33/39/33 31/37/31 41/47/41
f 35/41/35 34/40/34 42/48/42
f 35/41/35 42/48/42 43/49/43
f 35/41/35 43/49/43 36/42/36
f 36/42/36 43/49/43 44/50/44
f 36/42/36 44/50/44 39/45/39
f 37/43/37 40/46/40 45/51/45
f 37/43/37 45/51/45 46/52/46
f 37/43/37 46/52/46 38/44/38
f 38/44/38 46/52/46 47/53/47
f 38/44/38 47/53/47 24/30/24
f 24/30/24 47/53/47 34/40/34
f 39/45/39 44/50/44 48/54/48
f 39/45/39 48/54/48 49/55/49
f 39/45/39 49/55/49 29/35/29
f 40/46/40 50/56/50 45/51/45
f 40/46/40 41/47/41 50/56/50
f 43/49/43 42/48/42 51/57/51
f 43/49/43 51/57/51 52/58/52
f 43/49/43 52/58/52 44/50/44
f 44/50/44 53/59/53 48/54/48
f 44/50/44 52/58/52 53/59/53
f 46/52/46 45/51/45 54/60/54
f 46/52/46 54/60/54 55/61/55
f 46/52/46 55/61/55 47/53/47
f 47/53/47 55/61/55 56/62/56
f 47/53/47 56/62/56 34/40/34
f 34/40/34 56/62/56 42/48/42
f 29/35/29 49/55/49 57/63/57
f 29/35/29 57/63/57 30/36/30
f 51/57/51 58/64/58 52/58/52
f 51/57/51 42/48/42 59/65/59
f 51/57/51 59/65/59 58/64/58
f 52/58/52 58/64/58 60/66/60
f 52/58/52 61/67/61 53/59/53
f 52/58/52 60/66/60 61/67/61
f 53/59/53 61/67/61 62/68/62
f 53/59/53 62/68/62 48/54/48
f 56/62/56 55/61/55 63/69/63
f 56/62/56 63/69/63 59/65/59
f 56/62/56 59/65/59 42/48/42
f 55/61/55 64/70/64 63/69/63
f 55/61/55 54/60/54 64/70/64
f 57/63/57 65/71/65 30/36/30
f 57/63/57 49/55/49 66/72/66
f 57/63/57 66/72/66 65/71/65
f 30/36/30 65/71/65 31/37/31
f 60/73/60 67/74/67 61/75/61
f 60/73/60 58/76/58 67/74/67
f 61/67/61 68/77/68 62/68/62
f 61/75/61 67/78/67 68/79/68
f 48/54/48 69/80/69 49/55/49
f 48/54/48 62/68/62 69/80/69
f 63/69/63 70/81/70 59/65/59
f 63/69/63 64/70/64 70/81/70
f 65/71/65 66/72/66 71/82/71
f 65/71/65 71/82/71 72/83/72
f 65/71/65 72/83/72 31/37/31
f 49/55/49 69/80/69 66/72/66
f 66/72/66 69/80/69 73/84/73
f 66/72/66 73/84/73 71/82/71
f 31/37/31 72/83/72 41/47/41
f 68/79/68 67/85/67 74/86/74
f 68/77/68 74/87/74 62/68/62
f 67/78/67 58/76/58 75/88/75
f 69/80/69 76/89/76 73/84/73
f 69/80/69 62/68/62 76/89/76
f 59/65/59 70/81/77 75/90/78
f 59/65/59 75/90/79 58/64/58
f 71/82/71 73/84/73 77/91/80
f 71/82/71 77/91/80 78/92/81
f 71/82/71 78/92/81 72/83/72
f 72/83/72 78/92/81 41/47/41
f 73/84/73 76/89/76 77/91/80
f 41/47/41 78/92/81 50/56/50
f 67/85/67 75/88/75 70/93/82
f 74/86/74 67/94/67 79/95/83
f 74/87/74 76/89/76 62/68/62
f 74/87/74 79/96/83 76/89/76
f 76/89/76 80/97/84 77/91/80
f 76/89/76 79/96/83 80/97/84
f 77/91/80 81/98/85 82/99/86
f 77/91/80 80/97/84 81/98/85
f 77/91/80 82/99/86 78/92/81
f 78/92/81 82/99/86 50/56/50
f 50/56/50 82/99/86 83/100/87
f 50/56/50 83/100/87 45/51/45
f 70/93/82 84/101/88 67/94/67
f 70/81/70 64/70/64 84/102/88
f 79/95/83 67/103/67 85/104/89
f 79/96/83 85/105/89 80/97/84
f 80/97/84 85/105/89 81/98/85
f 81/98/85 83/100/87 82/99/86
f 81/98/85 86/106/90 83/100/87
f 81/98/85 87/107/91 86/106/90
f 81/98/85 85/105/89 87/107/91
f 83/100/87 54/60/54 45/51/45
f 83/100/87 88/108/92 54/60/54
f 83/100/87 86/106/90 88/108/92
f 84/102/88 64/70/64 89/109/93
f 84/101/88 89/110/93 67/103/67
f 64/70/64 88/108/92 89/109/93
f 64/70/64 54/60/54 88/108/92
f 85/104/89 67/111/67 87/112/91
f 86/106/90 89/109/93 88/108/92
f 86/106/90 87/107/91 89/109/93
f 87/112/91 67/111/67 89/110/93
